<mxfile host="app.diagrams.net" modified="2022-05-18T13:39:32.606Z" agent="5.0 (Windows NT 10.0; Win64; x64) AppleWebKit/537.36 (KHTML, like Gecko) Chrome/101.0.0.0 Safari/537.36" etag="yQQil5Nbi4P20dWCfTB-" version="18.0.7" type="github">
  <diagram id="2t2qgSyXB90kAJLT5eAf" name="Page-1">
    <mxGraphModel dx="868" dy="482" grid="1" gridSize="11" guides="1" tooltips="1" connect="1" arrows="1" fold="1" page="1" pageScale="1" pageWidth="850" pageHeight="1100" math="0" shadow="0">
      <root>
        <mxCell id="0" />
        <mxCell id="1" parent="0" />
        <mxCell id="t4b2v6uFI-pKEfyT1JlH-91" value="" style="rounded=1;whiteSpace=wrap;html=1;" vertex="1" parent="1">
          <mxGeometry x="104.5" y="99" width="440" height="231" as="geometry" />
        </mxCell>
        <mxCell id="t4b2v6uFI-pKEfyT1JlH-92" value="Low coupling&amp;nbsp;" style="text;strokeColor=none;fillColor=none;html=1;fontSize=24;fontStyle=5;verticalAlign=middle;align=center;rounded=1;fontColor=#46495D;" vertex="1" parent="1">
          <mxGeometry x="209" y="99" width="231" height="44" as="geometry" />
        </mxCell>
        <mxCell id="t4b2v6uFI-pKEfyT1JlH-93" value="Entity" style="whiteSpace=wrap;html=1;align=center;fillColor=#B2C9AB;fontColor=#46495D;strokeColor=#788AA3;rounded=1;" vertex="1" parent="1">
          <mxGeometry x="160" y="170" width="100" height="40" as="geometry" />
        </mxCell>
        <mxCell id="t4b2v6uFI-pKEfyT1JlH-94" value="Entity" style="whiteSpace=wrap;html=1;align=center;fillColor=#B2C9AB;fontColor=#46495D;strokeColor=#788AA3;rounded=1;" vertex="1" parent="1">
          <mxGeometry x="375" y="170" width="100" height="40" as="geometry" />
        </mxCell>
        <mxCell id="t4b2v6uFI-pKEfyT1JlH-95" value="Entity" style="whiteSpace=wrap;html=1;align=center;fillColor=#B2C9AB;fontColor=#46495D;strokeColor=#788AA3;rounded=1;" vertex="1" parent="1">
          <mxGeometry x="160" y="270" width="100" height="40" as="geometry" />
        </mxCell>
        <mxCell id="t4b2v6uFI-pKEfyT1JlH-96" value="Entity" style="whiteSpace=wrap;html=1;align=center;fillColor=#B2C9AB;fontColor=#46495D;strokeColor=#788AA3;rounded=1;" vertex="1" parent="1">
          <mxGeometry x="375" y="270" width="100" height="40" as="geometry" />
        </mxCell>
        <mxCell id="t4b2v6uFI-pKEfyT1JlH-97" value="" style="edgeStyle=entityRelationEdgeStyle;fontSize=12;html=1;endArrow=ERmandOne;rounded=1;exitX=1;exitY=0.75;exitDx=0;exitDy=0;fillColor=#B2C9AB;strokeColor=#788AA3;entryX=0;entryY=0.75;entryDx=0;entryDy=0;fontColor=#46495D;" edge="1" parent="1" source="t4b2v6uFI-pKEfyT1JlH-95" target="t4b2v6uFI-pKEfyT1JlH-96">
          <mxGeometry width="100" height="100" relative="1" as="geometry">
            <mxPoint x="280" y="300" as="sourcePoint" />
            <mxPoint x="363" y="300" as="targetPoint" />
          </mxGeometry>
        </mxCell>
        <mxCell id="t4b2v6uFI-pKEfyT1JlH-98" value="" style="edgeStyle=entityRelationEdgeStyle;fontSize=12;html=1;endArrow=ERmandOne;rounded=1;exitX=1;exitY=0.75;exitDx=0;exitDy=0;strokeColor=#788AA3;fontColor=#46495D;" edge="1" parent="1" source="t4b2v6uFI-pKEfyT1JlH-93">
          <mxGeometry width="100" height="100" relative="1" as="geometry">
            <mxPoint x="270" y="200" as="sourcePoint" />
            <mxPoint x="374" y="200" as="targetPoint" />
          </mxGeometry>
        </mxCell>
        <mxCell id="t4b2v6uFI-pKEfyT1JlH-99" value="" style="fontSize=12;html=1;endArrow=ERmandOne;rounded=1;fontFamily=Helvetica;fontColor=#46495D;strokeColor=#788AA3;shape=connector;exitX=0.5;exitY=0;exitDx=0;exitDy=0;" edge="1" parent="1" source="t4b2v6uFI-pKEfyT1JlH-95">
          <mxGeometry width="100" height="100" relative="1" as="geometry">
            <mxPoint x="209.5" y="254" as="sourcePoint" />
            <mxPoint x="209.5" y="210" as="targetPoint" />
          </mxGeometry>
        </mxCell>
        <mxCell id="t4b2v6uFI-pKEfyT1JlH-100" style="edgeStyle=none;shape=connector;rounded=1;orthogonalLoop=1;jettySize=auto;html=1;entryX=0.5;entryY=0;entryDx=0;entryDy=0;fontFamily=Helvetica;fontSize=11;fontColor=#46495D;endArrow=none;strokeColor=#788AA3;" edge="1" parent="1" source="t4b2v6uFI-pKEfyT1JlH-96" target="t4b2v6uFI-pKEfyT1JlH-96">
          <mxGeometry relative="1" as="geometry" />
        </mxCell>
        <mxCell id="t4b2v6uFI-pKEfyT1JlH-101" value="" style="fontSize=12;html=1;endArrow=ERmandOne;rounded=1;fontFamily=Helvetica;fontColor=#46495D;strokeColor=#788AA3;shape=connector;exitX=0.5;exitY=0;exitDx=0;exitDy=0;" edge="1" parent="1">
          <mxGeometry width="100" height="100" relative="1" as="geometry">
            <mxPoint x="425.5" y="270" as="sourcePoint" />
            <mxPoint x="425" y="210" as="targetPoint" />
          </mxGeometry>
        </mxCell>
        <mxCell id="t4b2v6uFI-pKEfyT1JlH-102" value="" style="rounded=1;whiteSpace=wrap;html=1;" vertex="1" parent="1">
          <mxGeometry x="99" y="418" width="451" height="242" as="geometry" />
        </mxCell>
        <mxCell id="t4b2v6uFI-pKEfyT1JlH-103" value="Entity" style="whiteSpace=wrap;html=1;align=center;rounded=1;fontColor=#46495D;strokeColor=#788AA3;fillColor=#B2C9AB;" vertex="1" parent="1">
          <mxGeometry x="160" y="583" width="100" height="40" as="geometry" />
        </mxCell>
        <mxCell id="t4b2v6uFI-pKEfyT1JlH-104" value="Entity" style="whiteSpace=wrap;html=1;align=center;rounded=1;fontColor=#46495D;strokeColor=#788AA3;fillColor=#B2C9AB;" vertex="1" parent="1">
          <mxGeometry x="375" y="583" width="100" height="44" as="geometry" />
        </mxCell>
        <mxCell id="t4b2v6uFI-pKEfyT1JlH-108" value="Entity" style="whiteSpace=wrap;html=1;align=center;rounded=1;fontColor=#46495D;strokeColor=#788AA3;fillColor=#B2C9AB;" vertex="1" parent="1">
          <mxGeometry x="160" y="495" width="100" height="40" as="geometry" />
        </mxCell>
        <mxCell id="t4b2v6uFI-pKEfyT1JlH-109" value="Entity" style="whiteSpace=wrap;html=1;align=center;rounded=1;fontColor=#46495D;strokeColor=#788AA3;fillColor=#B2C9AB;" vertex="1" parent="1">
          <mxGeometry x="375" y="495" width="100" height="40" as="geometry" />
        </mxCell>
        <mxCell id="t4b2v6uFI-pKEfyT1JlH-111" value="Tight Coupling&amp;nbsp;" style="text;strokeColor=none;fillColor=none;html=1;fontSize=24;fontStyle=1;verticalAlign=middle;align=center;rounded=1;fontColor=#46495D;" vertex="1" parent="1">
          <mxGeometry x="269" y="429" width="100" height="40" as="geometry" />
        </mxCell>
        <mxCell id="t4b2v6uFI-pKEfyT1JlH-112" value="" style="fontSize=12;html=1;endArrow=ERoneToMany;startArrow=ERzeroToMany;rounded=1;fontColor=#46495D;strokeColor=#788AA3;fillColor=#B2C9AB;entryX=0;entryY=0.5;entryDx=0;entryDy=0;" edge="1" parent="1" target="t4b2v6uFI-pKEfyT1JlH-109">
          <mxGeometry width="100" height="100" relative="1" as="geometry">
            <mxPoint x="260" y="600" as="sourcePoint" />
            <mxPoint x="360" y="500" as="targetPoint" />
          </mxGeometry>
        </mxCell>
        <mxCell id="t4b2v6uFI-pKEfyT1JlH-114" value="" style="fontSize=12;html=1;endArrow=ERoneToMany;startArrow=ERzeroToMany;rounded=1;fontColor=#46495D;strokeColor=#788AA3;fillColor=#B2C9AB;" edge="1" parent="1">
          <mxGeometry width="100" height="100" relative="1" as="geometry">
            <mxPoint x="429" y="583" as="sourcePoint" />
            <mxPoint x="429" y="535" as="targetPoint" />
          </mxGeometry>
        </mxCell>
        <mxCell id="t4b2v6uFI-pKEfyT1JlH-115" value="" style="fontSize=12;html=1;endArrow=ERoneToMany;startArrow=ERzeroToMany;rounded=1;fontColor=#46495D;strokeColor=#788AA3;fillColor=#B2C9AB;" edge="1" parent="1">
          <mxGeometry width="100" height="100" relative="1" as="geometry">
            <mxPoint x="209" y="583" as="sourcePoint" />
            <mxPoint x="209.5" y="535" as="targetPoint" />
          </mxGeometry>
        </mxCell>
        <mxCell id="t4b2v6uFI-pKEfyT1JlH-116" value="" style="fontSize=12;html=1;endArrow=ERoneToMany;startArrow=ERzeroToMany;rounded=1;fontColor=#46495D;strokeColor=#788AA3;fillColor=#B2C9AB;" edge="1" parent="1">
          <mxGeometry width="100" height="100" relative="1" as="geometry">
            <mxPoint x="259" y="506.5" as="sourcePoint" />
            <mxPoint x="374" y="506" as="targetPoint" />
          </mxGeometry>
        </mxCell>
        <mxCell id="t4b2v6uFI-pKEfyT1JlH-117" value="" style="fontSize=12;html=1;endArrow=ERoneToMany;startArrow=ERzeroToMany;rounded=1;fontColor=#46495D;strokeColor=#788AA3;fillColor=#B2C9AB;" edge="1" parent="1">
          <mxGeometry width="100" height="100" relative="1" as="geometry">
            <mxPoint x="374" y="616" as="sourcePoint" />
            <mxPoint x="259" y="616" as="targetPoint" />
          </mxGeometry>
        </mxCell>
        <mxCell id="t4b2v6uFI-pKEfyT1JlH-119" value="" style="fontSize=12;html=1;endArrow=ERoneToMany;startArrow=ERzeroToMany;rounded=1;fontColor=#46495D;strokeColor=#788AA3;fillColor=#B2C9AB;exitX=0.39;exitY=-0.045;exitDx=0;exitDy=0;exitPerimeter=0;" edge="1" parent="1" source="t4b2v6uFI-pKEfyT1JlH-104">
          <mxGeometry width="100" height="100" relative="1" as="geometry">
            <mxPoint x="348" y="606" as="sourcePoint" />
            <mxPoint x="260" y="517" as="targetPoint" />
          </mxGeometry>
        </mxCell>
      </root>
    </mxGraphModel>
  </diagram>
</mxfile>
